#!OML:ASF I:\Actors\actors\Patient Classification 2\Patient 1\Session 1\actor1.ASF
:FULLY-SPECIFIED
:DEGREES
481
root 1.30188 18.4133 3.74188 13.0991 -22.1421 -8.81776
lowerback 24.0975 1.59682 -5.92162
upperback 6.78749 0.362315 -2.0577
thorax -5.93692 0.145055 1.04577
lowerneck -11.7509 3.47004 8.01733
upperneck 32.2552 3.06692 -1.23304
head 12.8843 2.02897 -1.46178
rclavicle 3.65764e-014 -2.54444e-014
rhumerus -19.893 57.947 -96.933
rradius 110.106
rwrist -45.8611
rhand -30.1749 -33.2337
rfingers 7.12502
rthumb -3.48639 -63.1849
lclavicle 3.65764e-014 -2.54444e-014
lhumerus -28.1263 -35.6375 77.7069
lradius 76.2132
lwrist 19.7607
lhand -32.1392 -75.5859
lfingers 7.12502
lthumb -5.3831 -45.6743
rfemur -13.6638 12.0931 13.4888
rtibia 4.27387e-015
rfoot -4.03982 -10.0736
rtoes -10.5386
lfemur -27.7777 12.0634 -14.0965
ltibia 43.1765
lfoot -27.1369 12.5223
ltoes -51.1123
482
root 1.26854 18.4202 3.73645 13.116 -22.0759 -8.5858
lowerback 24.2308 1.78197 -5.63924
upperback 6.70958 0.658403 -1.99201
thorax -6.10719 0.291523 0.869076
lowerneck -11.9732 3.16399 7.85882
upperneck 32.3279 2.65415 -1.22779
head 12.9329 1.8362 -1.48986
rclavicle -2.38542e-014 -2.06736e-014
rhumerus -21.1314 58.2171 -98.6026
rradius 109.65
rwrist -46.4068
rhand -29.9621 -32.8446
rfingers 7.12502
rthumb -3.28087 -62.7991
lclavicle -2.38542e-014 -2.06736e-014
lhumerus -29.941 -36.4424 77.9751
lradius 76.0926
lwrist 19.5914
lhand -32.2986 -75.8343
lfingers 7.12502
lthumb -5.537 -45.9266
rfemur -13.7388 11.9941 13.3683
rtibia -5.56597e-015
rfoot -4.02218 -10.0665
rtoes -10.2633
lfemur -27.7639 12.0105 -14.2175
ltibia 42.9466
lfoot -27.0157 12.5471
ltoes -51.1533
483
root 1.23547 18.4271 3.73315 13.0572 -22.055 -8.37861
lowerback 24.4721 1.97734 -5.37114
upperback 6.67334 0.957154 -1.93022
thorax -6.28354 0.43716 0.692299
lowerneck -12.3233 2.86625 7.54943
upperneck 32.4661 2.24518 -1.11198
head 13.0336 1.64192 -1.44804
rclavicle 2.8625e-014 -1.11319e-014
rhumerus -22.3334 58.3699 -100.193
rradius 109.171
rwrist -46.8061
rhand -29.8081 -32.0937
rfingers 7.12502
rthumb -3.13211 -62.0505
lclavicle 2.8625e-014 -1.11319e-014
lhumerus -31.4382 -36.9706 78.2707
lradius 75.8712
lwrist 19.3948
lhand -32.4467 -76.1718
lfingers 7.12502
lthumb -5.68006 -46.2679
rfemur -13.7206 11.9518 13.2683
rtibia -2.72335e-014
rfoot -4.02329 -10.053
rtoes -9.78073
lfemur -27.6441 11.9146 -14.3066
ltibia 42.7403
lfoot -27.0077 12.6065
ltoes -51.0722
484
root 1.20171 18.4351 3.72459 13.0749 -22.0294 -8.21203
lowerback 24.7154 2.10149 -5.30385
upperback 6.63127 1.1276 -1.7518
thorax -6.46353 0.522184 0.793112
lowerneck -12.7386 2.68047 6.81429
upperneck 32.582 2.04322 -0.801014
head 13.1409 1.51017 -1.22557
rclavicle 5.1684e-014 -2.70347e-014
rhumerus -23.2529 58.8206 -101.338
rradius 108.709
rwrist -47.1216
rhand -29.7674 -31.5465
rfingers 7.12502
rthumb -3.09282 -61.5038
lclavicle 5.1684e-014 -2.70347e-014
lhumerus -32.6527 -36.9149 78.6936
lradius 75.5673
lwrist 19.4035
lhand -32.6201 -76.5907
lfingers 7.12502
lthumb -5.84748 -46.6914
rfemur -13.7963 11.9103 13.2091
rtibia 5.74488e-014
rfoot -3.95208 -10.0637
rtoes -9.89658
lfemur -27.6308 11.8439 -14.364
ltibia 42.5628
lfoot -26.9448 12.6937
ltoes -51.1503
485
root 1.16639 18.443 3.70794 13.2505 -21.974 -8.13122
lowerback 24.8767 2.18022 -5.31104
upperback 6.54993 1.22859 -1.56838
thorax -6.64381 0.575627 0.963019
lowerneck -13.0121 2.5556 6.19122
upperneck 32.5763 1.91303 -0.48499
head 13.1748 1.42134 -1.01047
rclavicle 4.05521e-014 1.27222e-014
rhumerus -24.0572 59.2775 -102.368
rradius 108.251
rwrist -47.141
rhand -30.0024 -31.4803
rfingers 7.12502
rthumb -3.31982 -61.4342
lclavicle 4.05521e-014 1.27222e-014
lhumerus -33.5329 -36.5875 79.0809
lradius 75.197
lwrist 19.5227
lhand -32.6066 -76.7741
lfingers 7.12502
lthumb -5.83441 -46.8744
rfemur -14.0411 11.8492 13.2327
rtibia -3.66758e-014
rfoot -3.85079 -10.1101
rtoes -10.1705
lfemur -27.8092 11.7948 -14.3354
ltibia 42.4201
lfoot -26.7846 12.7685
ltoes -51.2727
486
root 1.13035 18.4494 3.68846 13.4882 -21.896 -8.08817
lowerback 24.9792 2.25175 -5.2505
upperback 6.47179 1.33186 -1.49967
thorax -6.78827 0.628863 0.968989
lowerneck -13.1009 2.40528 6.12724
upperneck 32.3895 1.73054 -0.528707
head 13.1049 1.32909 -1.04194
rclavicle 5.40694e-014 -2.54444e-014
rhumerus -24.9384 59.2379 -103.6
rradius 107.817
rwrist -46.5374
rhand -30.0351 -31.8388
rfingers 7.12502
rthumb -3.35131 -61.7922
lclavicle 5.40694e-014 -2.54444e-014
lhumerus -33.9221 -36.247 79.2665
lradius 74.8499
lwrist 19.4294
lhand -32.8112 -76.9043
lfingers 7.12502
lthumb -6.03194 -47.0101
rfemur -14.3388 11.7695 13.2872
rtibia 1.39149e-014
rfoot -3.82493 -10.1402
rtoes -10.0195
lfemur -28.0716 11.7232 -14.2644
ltibia 42.3186
lfoot -26.6846 12.8007
ltoes -51.2229
487
root 1.09477 18.4542 3.66516 13.8055 -21.722 -8.04422
lowerback 24.9752 2.26603 -5.13973
upperback 6.43628 1.37825 -1.49649
thorax -6.82636 0.65191 0.894667
lowerneck -13.1419 2.27355 6.44273
upperneck 31.9987 1.58238 -0.886733
head 12.9487 1.25436 -1.25533
rclavicle 3.33958e-014 -2.38542e-014
rhumerus -25.4399 58.7769 -104.466
rradius 107.409
rwrist -45.5215
rhand -29.3111 -32.6458
rfingers 7.12502
rthumb -2.65213 -62.6091
lclavicle 3.33958e-014 -2.38542e-014
lhumerus -33.7809 -35.9198 79.343
lradius 74.5556
lwrist 19.3935
lhand -32.39 -76.9017
lfingers 7.12502
lthumb -5.62531 -46.9964
rfemur -14.708 11.5895 13.3544
rtibia 2.74323e-014
rfoot -3.82341 -10.1601
rtoes -9.75035
lfemur -28.4573 11.6459 -14.1981
ltibia 42.2047
lfoot -26.5748 12.7775
ltoes -51.1256
